<svg
	width="200"
	height="200"
	viewBox="0 0 200 200"
	fill="none"
	xmlns="http://www.w3.org/2000/svg"
>
<rect width="200" height="200" fill="white" />
<path
		d="M105.314 114.072L98.9076 114.09L98.9206 109.945L105.347 109.94L105.314 114.072Z"
		fill="#406AFF"
	/>
<path
		fill-rule="evenodd"
		clip-rule="evenodd"
		d="M162.32 51.5146L178 51.4675L177.995 140.068L162.291 140.037C152.388 139.989 142.326 139.64 132.441 140.084C129.135 140.232 125.891 140.753 122.986 142.42C117.486 145.577 107.093 159.516 102.082 165C96.1814 158.91 91.1452 151.771 85.2706 145.618C78.3444 138.364 67.2214 140.069 57.9437 140.039L22.0065 140.031L22 51.4777L37.7511 51.4815C37.6876 46.0101 37.6915 40.5378 37.7625 35.066C40.9478 36.1286 44.9845 37.1106 48.3139 38.0182L71.8284 44.2565C83.9492 47.4868 94.5239 49.3939 101.959 60.6963C111.502 48.0907 122.392 46.8617 136.587 42.6803L162.321 35L162.32 51.5146ZM44.23 117.853C59.8421 117.706 74.0772 116.702 87.7477 125.64L87.6824 104.289C85.0243 100.99 82.0293 98.0017 79.3779 94.7609C75.3456 95.2221 72.2278 93.5854 71.7914 89.34C71.619 87.7953 72.0823 86.247 73.0759 85.0476C74.1717 83.7323 75.7571 82.9156 77.4696 82.7845C79.123 82.6556 80.7544 83.2254 81.9639 84.3542C83.8995 86.173 84.0517 88.0957 84.0236 90.5064L84.0154 90.9194C86.1752 93.2939 92.2762 99.6199 93.9751 101.902C94.2454 106.038 94.0498 110.331 94.1008 114.482C94.2048 122.944 93.9222 131.691 94.1242 140.141C75.5488 120.299 62.3333 124.632 37.7288 124.24L37.6885 58.0549L28.3907 58.0554L28.4571 133.487L56.1589 133.482C67.3013 133.463 81.2929 131.909 89.6626 140.774C92.8387 144.138 95.8767 147.789 98.9054 151.302L98.9255 117.475L105.356 117.47C105.289 128.637 105.46 140.124 105.256 151.232C108.414 147.699 111.61 143.723 114.94 140.401C123.146 132.215 135.336 133.472 146.253 133.474L171.527 133.485L171.536 72.7799L171.522 58.0576C168.465 58.0138 165.408 58.0151 162.351 58.0614L162.342 99.9627C162.34 107.945 162.495 116.359 162.222 124.292C144.063 124.206 127.644 122.335 113.55 136.195C112.338 137.405 111.164 138.651 110.027 139.931L109.975 102.186C113.291 98.2767 116.711 94.4556 120.233 90.7278C119.929 86.8471 121.544 82.4904 125.934 82.7996C135.293 83.4588 134.692 95.8703 124.789 94.8091C122.925 96.8938 117.933 102.26 116.571 104.34C116.331 111.258 116.48 118.646 116.484 125.612C129.632 117.447 140.983 117.784 155.818 117.799L155.777 43.7747L133.962 50.2074C124.11 53.0815 112.699 54.9091 107.28 64.7625C104.119 70.51 105.487 77.5501 105.242 83.9699C107.632 81.448 109.956 78.866 112.213 76.2263C111.21 70.1756 117.088 66.0551 121.619 69.4505C123.126 70.5926 124.073 72.317 124.228 74.1943C124.611 78.7432 120.779 81.0378 116.592 80.5468C114.57 82.6356 107.189 91.1255 105.525 93.5219C105.143 97.3253 105.309 102.515 105.3 106.478L98.9196 106.51C98.9212 102.364 98.9909 98.0231 98.9059 93.8932C97.2455 90.9398 90.2004 83.5518 87.6318 80.5917C86.4747 80.6064 85.3071 80.6454 84.1542 80.5717C74.9474 75.3721 81.9559 65.5707 89.5678 69.365C91.9203 70.5379 92.2528 73.9955 92.021 76.4536C94.2956 79.1055 96.547 81.5463 98.8782 84.1334C98.9166 80.085 99.2634 74.8369 98.8401 70.8968C97.1936 55.575 78.8553 52.7698 67.2698 49.8009C59.5822 47.7794 51.9049 45.7195 44.2381 43.621L44.23 117.853ZM128.344 88.4994C128.133 87.3465 127.018 86.5838 125.86 86.7997C124.709 87.0142 123.95 88.1129 124.16 89.2582C124.37 90.4034 125.471 91.1645 126.624 90.9611C127.784 90.7562 128.555 89.6523 128.344 88.4994ZM79.9326 88.462C79.7054 87.3756 78.6586 86.6597 77.5572 86.8371C76.7999 86.9591 76.171 87.4844 75.9199 88.2054C75.6689 88.9262 75.8363 89.726 76.3554 90.2878C76.8746 90.8495 77.6623 91.0824 78.4058 90.894C79.487 90.6199 80.1599 89.5483 79.9326 88.462ZM88.0922 74.0563C87.838 72.9179 86.7027 72.2008 85.5585 72.4557C84.4174 72.7102 83.6988 73.8355 83.9523 74.9705C84.2058 76.1059 85.3359 76.8231 86.4778 76.5733C87.6232 76.3227 88.3464 75.1948 88.0922 74.0563ZM120.135 73.8511C119.799 72.7719 118.663 72.1518 117.567 72.4487C116.824 72.6499 116.25 73.2384 116.071 73.9832C115.891 74.7284 116.136 75.5114 116.707 76.0255C117.278 76.5392 118.085 76.703 118.813 76.4515C119.886 76.0807 120.471 74.9303 120.135 73.8511Z"
		fill="#406AFF"
	/>
</svg>
