<svg width="653" height="265" viewBox="0 0 653 265" fill="none" xmlns="http://www.w3.org/2000/svg">
<path d="M157.904 152.525L148.838 152.551L148.856 146.652L157.95 146.646L157.904 152.525Z" fill="#406AFF"/>
<path fill-rule="evenodd" clip-rule="evenodd" d="M238.578 63.5015L260.768 63.4345L260.76 189.52L238.536 189.476C224.522 189.407 210.283 188.91 196.293 189.542C191.615 189.754 187.024 190.494 182.913 192.867C175.13 197.359 160.422 217.196 153.33 225C144.98 216.333 137.853 206.174 129.539 197.418C119.737 187.095 103.996 189.521 90.8667 189.478L40.0092 189.467L40 63.4491L62.2906 63.4545C62.2007 55.6682 62.2062 47.8807 62.3068 40.094C66.8145 41.606 72.5271 43.0035 77.2388 44.2951L110.516 53.1727C127.669 57.7697 142.634 60.4836 153.157 76.5679C166.662 58.629 182.072 56.8801 202.161 50.9296L238.579 40L238.578 63.5015ZM71.4593 157.906C93.5532 157.697 113.698 156.268 133.045 168.987L132.952 138.603C129.191 133.909 124.952 129.656 121.2 125.044C115.493 125.701 111.081 123.372 110.464 117.33C110.22 115.132 110.875 112.928 112.281 111.222C113.832 109.35 116.076 108.188 118.499 108.001C120.839 107.818 123.148 108.628 124.86 110.235C127.599 112.823 127.814 115.559 127.774 118.99L127.763 119.578C130.819 122.957 139.453 131.959 141.857 135.206C142.24 141.093 141.963 147.201 142.035 153.109C142.182 165.151 141.783 177.599 142.069 189.624C115.781 161.388 97.0787 167.554 62.259 166.996L62.202 72.8089L49.0439 72.8096L49.1379 180.155L88.3409 180.147C104.109 180.12 123.91 177.909 135.754 190.525C140.249 195.312 144.549 200.507 148.835 205.507L148.863 157.368L157.963 157.361C157.868 173.253 158.111 189.599 157.822 205.407C162.292 200.379 166.814 194.722 171.527 189.994C183.139 178.345 200.391 180.133 215.841 180.135L251.607 180.152L251.62 93.7638L251.6 72.8127C247.274 72.7504 242.947 72.7522 238.622 72.8181L238.609 132.447C238.606 143.807 238.825 155.78 238.439 167.07C212.741 166.947 189.504 164.285 169.56 184.008C167.845 185.73 166.182 187.503 164.574 189.325L164.5 135.611C169.193 130.048 174.033 124.61 179.017 119.305C178.587 113.782 180.872 107.582 187.085 108.023C200.33 108.961 199.479 126.623 185.465 125.113C182.826 128.08 175.762 135.716 173.834 138.676C173.495 148.522 173.706 159.034 173.711 168.948C192.318 157.328 208.382 157.807 229.377 157.829L229.318 52.4871L198.446 61.6412C184.503 65.7314 168.355 68.3322 160.686 82.3543C156.213 90.5334 158.148 100.552 157.802 109.688C161.184 106.099 164.473 102.425 167.667 98.6682C166.248 90.0576 174.567 84.1939 180.979 89.0257C183.11 90.651 184.452 93.105 184.67 95.7765C185.213 102.25 179.79 105.515 173.864 104.817C171.004 107.789 160.558 119.871 158.203 123.281C157.663 128.694 157.897 136.078 157.884 141.719L148.855 141.764C148.857 135.864 148.956 129.687 148.835 123.81C146.486 119.607 136.516 109.093 132.881 104.881C131.243 104.901 129.591 104.957 127.959 104.852C114.93 97.4526 124.848 83.5045 135.62 88.904C138.95 90.5731 139.42 95.4936 139.092 98.9917C142.311 102.766 145.497 106.239 148.796 109.921C148.851 104.159 149.341 96.6909 148.742 91.0839C146.412 69.2798 120.46 65.2878 104.065 61.0627C93.1854 58.1861 82.3207 55.2546 71.4709 52.2684L71.4593 157.906ZM190.496 116.134C190.196 114.493 188.62 113.408 186.98 113.715C185.352 114.02 184.277 115.584 184.574 117.214C184.871 118.843 186.43 119.926 188.061 119.637C189.703 119.345 190.795 117.774 190.496 116.134ZM121.985 116.081C121.663 114.535 120.182 113.516 118.623 113.768C117.551 113.942 116.662 114.689 116.306 115.715C115.951 116.741 116.188 117.879 116.922 118.679C117.657 119.478 118.772 119.81 119.824 119.541C121.354 119.151 122.307 117.626 121.985 116.081ZM133.532 95.5801C133.172 93.9601 131.566 92.9395 129.946 93.3024C128.332 93.6645 127.315 95.2658 127.673 96.8811C128.032 98.4968 129.631 99.5175 131.248 99.1619C132.868 98.8054 133.892 97.2003 133.532 95.5801ZM178.878 95.2882C178.403 93.7523 176.795 92.8698 175.244 93.2924C174.192 93.5786 173.38 94.4162 173.127 95.4761C172.873 96.5366 173.218 97.6508 174.027 98.3824C174.835 99.1135 175.978 99.3466 177.007 98.9886C178.526 98.4609 179.353 96.8239 178.878 95.2882Z" fill="#406AFF"/>
<path d="M304.416 99.64V118H295.576V70.536H316.928C319.829 70.536 322.323 71.148 324.408 72.372C326.493 73.5507 328.103 75.228 329.236 77.404C330.369 79.58 330.936 82.164 330.936 85.156C330.936 88.42 330.188 91.2533 328.692 93.656C327.196 96.0133 324.975 97.668 322.028 98.62L331.82 118H321.96L313.052 99.64H304.416ZM304.416 92.16H316.044C317.223 92.16 318.22 91.956 319.036 91.548C319.897 91.14 320.555 90.528 321.008 89.712C321.507 88.896 321.756 87.9213 321.756 86.788V83.592C321.756 82.4133 321.507 81.4387 321.008 80.668C320.555 79.8973 319.897 79.308 319.036 78.9C318.22 78.4467 317.223 78.22 316.044 78.22H304.416V92.16ZM368.97 118H364.21C362.895 118 361.739 117.705 360.742 117.116C359.744 116.481 358.951 115.597 358.362 114.464C357.818 113.285 357.546 111.903 357.546 110.316V109.5L359.722 111.948H357.274C356.684 114.169 355.46 115.869 353.602 117.048C351.788 118.227 349.544 118.816 346.87 118.816C343.243 118.816 340.455 117.864 338.506 115.96C336.556 114.011 335.582 111.472 335.582 108.344C335.582 105.896 336.171 103.879 337.35 102.292C338.574 100.705 340.319 99.504 342.586 98.688C344.852 97.872 347.595 97.464 350.814 97.464H356.866V94.812C356.866 92.8627 356.322 91.344 355.234 90.256C354.191 89.1227 352.491 88.556 350.134 88.556C348.139 88.556 346.507 89.0093 345.238 89.916C343.968 90.7773 342.926 91.8427 342.11 93.112L337.01 88.488C338.279 86.448 340.002 84.816 342.178 83.592C344.354 82.3227 347.21 81.688 350.746 81.688C355.506 81.688 359.132 82.7987 361.626 85.02C364.164 87.196 365.434 90.3013 365.434 94.336V111.2H368.97V118ZM356.866 102.632H351.222C348.91 102.632 347.164 103.017 345.986 103.788C344.852 104.559 344.286 105.669 344.286 107.12V108.276C344.286 109.681 344.762 110.747 345.714 111.472C346.711 112.197 348.048 112.56 349.726 112.56C351.086 112.56 352.287 112.379 353.33 112.016C354.418 111.608 355.279 111.019 355.914 110.248C356.548 109.477 356.866 108.525 356.866 107.392V102.632ZM374.656 131.6V82.504H383.224V88.42H383.564C384.198 86.3347 385.4 84.7027 387.168 83.524C388.936 82.3 390.998 81.688 393.356 81.688C396.348 81.688 398.864 82.4133 400.904 83.864C402.989 85.3147 404.576 87.4227 405.664 90.188C406.752 92.9533 407.296 96.308 407.296 100.252C407.296 104.151 406.752 107.505 405.664 110.316C404.576 113.081 402.989 115.189 400.904 116.64C398.864 118.091 396.348 118.816 393.356 118.816C390.998 118.816 388.936 118.204 387.168 116.98C385.445 115.756 384.244 114.124 383.564 112.084H383.224V131.6H374.656ZM390.636 111.676C392.902 111.676 394.738 110.905 396.144 109.364C397.594 107.823 398.32 105.805 398.32 103.312V97.192C398.32 94.6533 397.594 92.6133 396.144 91.072C394.738 89.5307 392.902 88.76 390.636 88.76C389.23 88.76 387.961 89.0093 386.828 89.508C385.74 89.9613 384.856 90.6187 384.176 91.48C383.541 92.3413 383.224 93.3613 383.224 94.54V105.828C383.224 107.052 383.541 108.117 384.176 109.024C384.856 109.885 385.74 110.543 386.828 110.996C387.961 111.449 389.23 111.676 390.636 111.676ZM428.079 118.816C424.724 118.816 421.823 118.068 419.375 116.572C416.927 115.031 415.023 112.877 413.663 110.112C412.348 107.301 411.691 104.015 411.691 100.252C411.691 96.444 412.348 93.1573 413.663 90.392C415.023 87.6267 416.927 85.496 419.375 84C421.823 82.4587 424.724 81.688 428.079 81.688C431.479 81.688 434.403 82.4587 436.851 84C439.299 85.496 441.18 87.6267 442.495 90.392C443.855 93.1573 444.535 96.444 444.535 100.252C444.535 104.015 443.855 107.301 442.495 110.112C441.18 112.877 439.299 115.031 436.851 116.572C434.403 118.068 431.479 118.816 428.079 118.816ZM428.079 111.88C430.391 111.88 432.204 111.177 433.519 109.772C434.879 108.321 435.559 106.236 435.559 103.516V96.988C435.559 94.2227 434.879 92.1373 433.519 90.732C432.204 89.3267 430.391 88.624 428.079 88.624C425.857 88.624 424.067 89.3267 422.707 90.732C421.347 92.1373 420.667 94.2227 420.667 96.988V103.516C420.667 106.236 421.347 108.321 422.707 109.772C424.067 111.177 425.857 111.88 428.079 111.88ZM459.527 118H450.959V82.504H459.527V89.848H459.867C460.185 88.5787 460.729 87.4 461.499 86.312C462.27 85.1787 463.29 84.272 464.559 83.592C465.874 82.8667 467.461 82.504 469.319 82.504H471.223V90.596H468.435C466.486 90.596 464.854 90.8 463.539 91.208C462.225 91.616 461.227 92.228 460.547 93.044C459.867 93.8147 459.527 94.8573 459.527 96.172V118ZM491.482 118V70.536H513.378C517.277 70.536 520.337 71.6467 522.558 73.868C524.825 76.0893 525.958 79.036 525.958 82.708C525.958 85.1107 525.55 87.0373 524.734 88.488C523.918 89.9387 522.853 91.004 521.538 91.684C520.269 92.364 518.932 92.772 517.526 92.908V93.316C518.569 93.316 519.657 93.52 520.79 93.928C521.969 94.336 523.08 94.9707 524.122 95.832C525.21 96.6933 526.072 97.8267 526.706 99.232C527.386 100.637 527.726 102.36 527.726 104.4C527.726 106.939 527.182 109.228 526.094 111.268C525.052 113.308 523.601 114.94 521.742 116.164C519.929 117.388 517.844 118 515.486 118H491.482ZM500.322 97.6V110.452H512.97C514.104 110.452 515.078 110.248 515.894 109.84C516.71 109.432 517.345 108.843 517.798 108.072C518.252 107.301 518.478 106.349 518.478 105.216V102.904C518.478 101.771 518.252 100.819 517.798 100.048C517.345 99.2773 516.71 98.688 515.894 98.28C515.078 97.8267 514.104 97.6 512.97 97.6H500.322ZM500.322 78.084V90.324H511.542C512.63 90.324 513.56 90.1427 514.33 89.78C515.146 89.372 515.758 88.7827 516.166 88.012C516.574 87.2413 516.778 86.3347 516.778 85.292V83.116C516.778 82.0733 516.574 81.1667 516.166 80.396C515.758 79.6253 515.146 79.0587 514.33 78.696C513.56 78.288 512.63 78.084 511.542 78.084H500.322ZM538.886 77.268C537.163 77.268 535.894 76.86 535.078 76.044C534.262 75.1827 533.854 74.14 533.854 72.916V71.624C533.854 70.3547 534.262 69.312 535.078 68.496C535.894 67.68 537.163 67.272 538.886 67.272C540.654 67.272 541.923 67.68 542.694 68.496C543.51 69.312 543.918 70.3547 543.918 71.624V72.916C543.918 74.14 543.51 75.1827 542.694 76.044C541.923 76.86 540.654 77.268 538.886 77.268ZM534.602 118V82.504H543.17V118H534.602ZM560.47 118H551.902V82.504H560.47V89.848H560.81C561.127 88.5787 561.671 87.4 562.442 86.312C563.213 85.1787 564.233 84.272 565.502 83.592C566.817 82.8667 568.403 82.504 570.262 82.504H572.166V90.596H569.378C567.429 90.596 565.797 90.8 564.482 91.208C563.167 91.616 562.17 92.228 561.49 93.044C560.81 93.8147 560.47 94.8573 560.47 96.172V118ZM598.455 118V112.084H598.115C597.48 113.852 596.392 115.416 594.851 116.776C593.355 118.136 591.134 118.816 588.187 118.816C584.56 118.816 581.75 117.615 579.755 115.212C577.76 112.809 576.763 109.387 576.763 104.944V82.504H585.399V104.06C585.399 106.553 585.875 108.457 586.827 109.772C587.824 111.041 589.343 111.676 591.383 111.676C592.562 111.676 593.695 111.472 594.783 111.064C595.871 110.656 596.755 110.044 597.435 109.228C598.115 108.367 598.455 107.301 598.455 106.032V82.504H607.023V118H598.455Z" fill="#3B3A3A"/>
<path d="M310.856 181H294.092V150.288H297.788V177.744H310.856V181ZM323.889 181.528C321.836 181.528 320.047 181.044 318.521 180.076C316.996 179.079 315.808 177.7 314.957 175.94C314.107 174.151 313.681 172.053 313.681 169.648C313.681 167.243 314.107 165.16 314.957 163.4C315.808 161.611 316.996 160.232 318.521 159.264C320.047 158.267 321.836 157.768 323.889 157.768C325.913 157.768 327.659 158.252 329.125 159.22C330.592 160.159 331.721 161.464 332.513 163.136C333.305 164.808 333.701 166.715 333.701 168.856V170.528H317.377V171.584C317.377 173.549 317.964 175.192 319.137 176.512C320.34 177.803 321.997 178.448 324.109 178.448C325.547 178.448 326.793 178.111 327.849 177.436C328.935 176.761 329.771 175.793 330.357 174.532L332.865 176.336C332.132 177.861 330.988 179.108 329.433 180.076C327.879 181.044 326.031 181.528 323.889 181.528ZM323.889 160.716C322.628 160.716 321.499 161.009 320.501 161.596C319.533 162.183 318.771 163.004 318.213 164.06C317.656 165.087 317.377 166.26 317.377 167.58V167.888H329.917V167.404C329.917 166.055 329.668 164.881 329.169 163.884C328.671 162.887 327.967 162.109 327.057 161.552C326.148 160.995 325.092 160.716 323.889 160.716ZM357.982 181H356.002C355.063 181 354.3 180.809 353.714 180.428C353.127 180.017 352.702 179.46 352.438 178.756C352.174 178.052 352.042 177.245 352.042 176.336V176.028L353.406 177.304H351.866C351.396 178.683 350.575 179.739 349.402 180.472C348.258 181.176 346.894 181.528 345.31 181.528C342.904 181.528 341.027 180.912 339.678 179.68C338.358 178.448 337.698 176.776 337.698 174.664C337.698 173.227 338.05 172.024 338.754 171.056C339.458 170.059 340.514 169.311 341.922 168.812C343.359 168.284 345.178 168.02 347.378 168.02H351.866V165.776C351.866 164.163 351.426 162.931 350.546 162.08C349.666 161.229 348.316 160.804 346.498 160.804C345.148 160.804 344.004 161.112 343.066 161.728C342.127 162.344 341.35 163.165 340.734 164.192L338.622 162.212C339.238 161.009 340.22 159.968 341.57 159.088C342.919 158.208 344.62 157.768 346.674 157.768C349.402 157.768 351.528 158.443 353.054 159.792C354.608 161.141 355.386 163.019 355.386 165.424V177.92H357.982V181ZM351.866 170.66H347.202C345.207 170.66 343.74 170.953 342.802 171.54C341.863 172.127 341.394 172.977 341.394 174.092V175.016C341.394 176.131 341.804 176.996 342.626 177.612C343.447 178.228 344.532 178.536 345.882 178.536C347.055 178.536 348.082 178.36 348.962 178.008C349.871 177.627 350.575 177.128 351.074 176.512C351.602 175.867 351.866 175.163 351.866 174.4V170.66ZM366.526 181H363.006V158.296H366.526V162.476H366.746C367.01 161.743 367.42 161.068 367.978 160.452C368.535 159.807 369.254 159.293 370.134 158.912C371.014 158.501 372.07 158.296 373.302 158.296H374.666V161.816H372.598C371.336 161.816 370.251 161.992 369.342 162.344C368.432 162.667 367.728 163.107 367.23 163.664C366.76 164.221 366.526 164.867 366.526 165.6V181ZM382.682 181H379.162V158.296H382.682V161.992H382.858C383.415 160.701 384.193 159.675 385.19 158.912C386.217 158.149 387.581 157.768 389.282 157.768C391.629 157.768 393.477 158.531 394.826 160.056C396.205 161.552 396.894 163.679 396.894 166.436V181H393.374V167.052C393.374 165.028 392.934 163.503 392.054 162.476C391.203 161.449 389.927 160.936 388.226 160.936C387.287 160.936 386.393 161.097 385.542 161.42C384.691 161.713 384.002 162.183 383.474 162.828C382.946 163.473 382.682 164.28 382.682 165.248V181ZM405.93 152.972C405.196 152.972 404.654 152.796 404.302 152.444C403.95 152.063 403.774 151.579 403.774 150.992V150.42C403.774 149.833 403.95 149.364 404.302 149.012C404.654 148.631 405.196 148.44 405.93 148.44C406.692 148.44 407.235 148.631 407.558 149.012C407.91 149.364 408.086 149.833 408.086 150.42V150.992C408.086 151.579 407.91 152.063 407.558 152.444C407.235 152.796 406.692 152.972 405.93 152.972ZM404.17 181V158.296H407.69V181H404.17ZM418.69 181H415.17V158.296H418.69V161.992H418.866C419.423 160.701 420.2 159.675 421.198 158.912C422.224 158.149 423.588 157.768 425.29 157.768C427.636 157.768 429.484 158.531 430.834 160.056C432.212 161.552 432.902 163.679 432.902 166.436V181H429.382V167.052C429.382 165.028 428.942 163.503 428.062 162.476C427.211 161.449 425.935 160.936 424.234 160.936C423.295 160.936 422.4 161.097 421.55 161.42C420.699 161.713 420.01 162.183 419.482 162.828C418.954 163.473 418.69 164.28 418.69 165.248V181ZM459.318 183.508C459.318 185.063 458.907 186.339 458.086 187.336C457.264 188.363 456.032 189.111 454.39 189.58C452.776 190.079 450.752 190.328 448.318 190.328C445.971 190.328 444.05 190.108 442.554 189.668C441.087 189.228 440.016 188.583 439.341 187.732C438.667 186.911 438.33 185.913 438.33 184.74C438.33 183.508 438.652 182.54 439.298 181.836C439.943 181.132 440.823 180.633 441.938 180.34V179.856C441.292 179.533 440.794 179.123 440.442 178.624C440.09 178.096 439.914 177.451 439.914 176.688C439.914 175.544 440.28 174.679 441.014 174.092C441.747 173.476 442.686 173.021 443.83 172.728V172.552C442.48 171.907 441.424 170.983 440.662 169.78C439.928 168.577 439.562 167.184 439.562 165.6C439.562 164.045 439.914 162.681 440.618 161.508C441.322 160.335 442.319 159.425 443.61 158.78C444.9 158.105 446.396 157.768 448.098 157.768C448.919 157.768 449.682 157.841 450.386 157.988C451.119 158.135 451.794 158.355 452.41 158.648V158.252C452.41 157.372 452.615 156.653 453.026 156.096C453.436 155.509 454.111 155.216 455.05 155.216H458.438V158.296H454.126V159.748C454.947 160.452 455.578 161.303 456.018 162.3C456.487 163.297 456.722 164.397 456.722 165.6C456.722 167.125 456.37 168.489 455.666 169.692C454.962 170.865 453.964 171.789 452.674 172.464C451.383 173.109 449.872 173.432 448.142 173.432C447.76 173.432 447.379 173.417 446.998 173.388C446.616 173.329 446.264 173.271 445.942 173.212C445.208 173.417 444.519 173.725 443.874 174.136C443.258 174.517 442.95 175.06 442.95 175.764C442.95 176.439 443.272 176.893 443.918 177.128C444.563 177.363 445.399 177.48 446.426 177.48H451.266C454.082 177.48 456.12 178.023 457.382 179.108C458.672 180.164 459.318 181.631 459.318 183.508ZM456.018 183.772C456.018 182.863 455.666 182.129 454.962 181.572C454.287 181.044 453.07 180.78 451.31 180.78H443.742C443.008 181.103 442.466 181.513 442.114 182.012C441.791 182.54 441.63 183.156 441.63 183.86C441.63 184.857 441.996 185.708 442.73 186.412C443.492 187.116 444.768 187.468 446.558 187.468H449.814C451.779 187.468 453.304 187.16 454.39 186.544C455.475 185.928 456.018 185.004 456.018 183.772ZM448.142 170.616C449.638 170.616 450.826 170.264 451.706 169.56C452.586 168.827 453.026 167.712 453.026 166.216V164.984C453.026 163.488 452.586 162.388 451.706 161.684C450.826 160.951 449.638 160.584 448.142 160.584C446.646 160.584 445.458 160.951 444.578 161.684C443.698 162.388 443.258 163.488 443.258 164.984V166.216C443.258 167.712 443.698 168.827 444.578 169.56C445.458 170.264 446.646 170.616 448.142 170.616ZM485.658 181.528C483.018 181.528 480.715 180.927 478.75 179.724C476.814 178.492 475.303 176.703 474.218 174.356C473.162 171.98 472.634 169.076 472.634 165.644C472.634 162.212 473.162 159.323 474.218 156.976C475.303 154.6 476.814 152.811 478.75 151.608C480.715 150.376 483.018 149.76 485.658 149.76C488.298 149.76 490.586 150.376 492.522 151.608C494.487 152.811 495.998 154.6 497.054 156.976C498.139 159.323 498.682 162.212 498.682 165.644C498.682 169.076 498.139 171.98 497.054 174.356C495.998 176.703 494.487 178.492 492.522 179.724C490.586 180.927 488.298 181.528 485.658 181.528ZM485.658 178.228C487.447 178.228 489.017 177.817 490.366 176.996C491.715 176.145 492.771 174.972 493.534 173.476C494.326 171.98 494.722 170.22 494.722 168.196V163.092C494.722 161.068 494.326 159.308 493.534 157.812C492.771 156.287 491.715 155.113 490.366 154.292C489.017 153.471 487.447 153.06 485.658 153.06C483.898 153.06 482.329 153.471 480.95 154.292C479.601 155.113 478.53 156.287 477.738 157.812C476.975 159.308 476.594 161.068 476.594 163.092V168.196C476.594 170.22 476.975 171.98 477.738 173.476C478.53 174.972 479.601 176.145 480.95 176.996C482.329 177.817 483.898 178.228 485.658 178.228ZM513.95 181.528C511.486 181.528 509.36 181.059 507.57 180.12C505.81 179.152 504.314 177.832 503.082 176.16L505.81 173.872C506.896 175.309 508.098 176.409 509.418 177.172C510.738 177.905 512.293 178.272 514.082 178.272C516.282 178.272 517.954 177.744 519.098 176.688C520.272 175.632 520.858 174.224 520.858 172.464C520.858 171.496 520.668 170.675 520.286 170C519.905 169.325 519.289 168.768 518.438 168.328C517.617 167.859 516.532 167.477 515.182 167.184L512.674 166.612C510.826 166.172 509.257 165.6 507.966 164.896C506.676 164.192 505.693 163.283 505.018 162.168C504.344 161.053 504.006 159.719 504.006 158.164C504.006 156.345 504.432 154.82 505.282 153.588C506.133 152.327 507.321 151.373 508.846 150.728C510.401 150.083 512.176 149.76 514.17 149.76C516.488 149.76 518.468 150.185 520.11 151.036C521.782 151.887 523.19 153.133 524.334 154.776L521.562 156.8C520.741 155.627 519.714 154.703 518.482 154.028C517.28 153.353 515.784 153.016 513.994 153.016C512.029 153.016 510.474 153.441 509.33 154.292C508.216 155.143 507.658 156.389 507.658 158.032C507.658 159 507.864 159.807 508.274 160.452C508.714 161.097 509.36 161.64 510.21 162.08C511.061 162.491 512.132 162.843 513.422 163.136L515.93 163.708C517.925 164.148 519.553 164.749 520.814 165.512C522.076 166.275 523 167.213 523.586 168.328C524.202 169.443 524.51 170.763 524.51 172.288C524.51 174.165 524.085 175.793 523.234 177.172C522.384 178.551 521.166 179.621 519.582 180.384C518.028 181.147 516.15 181.528 513.95 181.528Z" fill="#3B3A3A"/>
</svg>
