<svg width="658" height="265" viewBox="0 0 658 265" fill="none" xmlns="http://www.w3.org/2000/svg">
<path d="M157.904 152.525L148.838 152.551L148.856 146.652L157.95 146.646L157.904 152.525Z" fill="#406AFF"/>
<path fill-rule="evenodd" clip-rule="evenodd" d="M238.578 63.5015L260.768 63.4345L260.76 189.52L238.536 189.476C224.522 189.407 210.283 188.91 196.293 189.542C191.615 189.754 187.024 190.494 182.913 192.867C175.13 197.359 160.422 217.196 153.33 225C144.98 216.333 137.853 206.174 129.539 197.418C119.737 187.095 103.996 189.521 90.8667 189.478L40.0092 189.467L40 63.4491L62.2906 63.4545C62.2007 55.6682 62.2062 47.8807 62.3068 40.094C66.8145 41.606 72.5271 43.0035 77.2388 44.2951L110.516 53.1727C127.669 57.7697 142.634 60.4836 153.157 76.5679C166.662 58.629 182.072 56.8801 202.161 50.9296L238.579 40L238.578 63.5015ZM71.4593 157.906C93.5532 157.697 113.698 156.268 133.045 168.987L132.952 138.603C129.191 133.909 124.952 129.656 121.2 125.044C115.493 125.701 111.081 123.372 110.464 117.33C110.22 115.132 110.875 112.928 112.281 111.222C113.832 109.35 116.076 108.188 118.499 108.001C120.839 107.818 123.148 108.628 124.86 110.235C127.599 112.823 127.814 115.559 127.774 118.99L127.763 119.578C130.819 122.957 139.453 131.959 141.857 135.206C142.24 141.093 141.963 147.201 142.035 153.109C142.182 165.151 141.783 177.599 142.069 189.624C115.781 161.388 97.0787 167.554 62.259 166.996L62.202 72.8089L49.0439 72.8096L49.1379 180.155L88.3409 180.147C104.109 180.12 123.91 177.909 135.754 190.525C140.249 195.312 144.549 200.507 148.835 205.507L148.863 157.368L157.963 157.361C157.868 173.253 158.111 189.599 157.822 205.407C162.292 200.379 166.814 194.722 171.527 189.994C183.139 178.345 200.391 180.133 215.841 180.135L251.607 180.152L251.62 93.7638L251.6 72.8127C247.274 72.7504 242.947 72.7522 238.622 72.8181L238.609 132.447C238.606 143.807 238.825 155.78 238.439 167.07C212.741 166.947 189.504 164.285 169.56 184.008C167.845 185.73 166.182 187.503 164.574 189.325L164.5 135.611C169.193 130.048 174.033 124.61 179.017 119.305C178.587 113.782 180.872 107.582 187.085 108.023C200.33 108.961 199.479 126.623 185.465 125.113C182.826 128.08 175.762 135.716 173.834 138.676C173.495 148.522 173.706 159.034 173.711 168.948C192.318 157.328 208.382 157.807 229.377 157.829L229.318 52.4871L198.446 61.6412C184.503 65.7314 168.355 68.3322 160.686 82.3543C156.213 90.5334 158.148 100.552 157.802 109.688C161.184 106.099 164.473 102.425 167.667 98.6682C166.248 90.0576 174.567 84.1939 180.979 89.0257C183.11 90.651 184.452 93.105 184.67 95.7765C185.213 102.25 179.79 105.515 173.864 104.817C171.004 107.789 160.558 119.871 158.203 123.281C157.663 128.694 157.897 136.078 157.884 141.719L148.855 141.764C148.857 135.864 148.956 129.687 148.835 123.81C146.486 119.607 136.516 109.093 132.881 104.881C131.243 104.901 129.591 104.957 127.959 104.852C114.93 97.4526 124.848 83.5045 135.62 88.904C138.95 90.5731 139.42 95.4936 139.092 98.9917C142.311 102.766 145.497 106.239 148.796 109.921C148.851 104.159 149.341 96.6909 148.742 91.0839C146.412 69.2798 120.46 65.2878 104.065 61.0627C93.1854 58.1861 82.3207 55.2546 71.4709 52.2684L71.4593 157.906ZM190.496 116.134C190.196 114.493 188.62 113.408 186.98 113.715C185.352 114.02 184.277 115.584 184.574 117.214C184.871 118.843 186.43 119.926 188.061 119.637C189.703 119.345 190.795 117.774 190.496 116.134ZM121.985 116.081C121.663 114.535 120.182 113.516 118.623 113.768C117.551 113.942 116.662 114.689 116.306 115.715C115.951 116.741 116.188 117.879 116.922 118.679C117.657 119.478 118.772 119.81 119.824 119.541C121.354 119.151 122.307 117.626 121.985 116.081ZM133.532 95.5801C133.172 93.9601 131.566 92.9395 129.946 93.3024C128.332 93.6645 127.315 95.2658 127.673 96.8811C128.032 98.4968 129.631 99.5175 131.248 99.1619C132.868 98.8054 133.892 97.2003 133.532 95.5801ZM178.878 95.2882C178.403 93.7523 176.795 92.8698 175.244 93.2924C174.192 93.5786 173.38 94.4162 173.127 95.4761C172.873 96.5366 173.218 97.6508 174.027 98.3824C174.835 99.1135 175.978 99.3466 177.007 98.9886C178.526 98.4609 179.353 96.8239 178.878 95.2882Z" fill="#406AFF"/>
<path d="M309.416 97.64V116H300.576V68.536H321.928C324.829 68.536 327.323 69.148 329.408 70.372C331.493 71.5507 333.103 73.228 334.236 75.404C335.369 77.58 335.936 80.164 335.936 83.156C335.936 86.42 335.188 89.2533 333.692 91.656C332.196 94.0133 329.975 95.668 327.028 96.62L336.82 116H326.96L318.052 97.64H309.416ZM309.416 90.16H321.044C322.223 90.16 323.22 89.956 324.036 89.548C324.897 89.14 325.555 88.528 326.008 87.712C326.507 86.896 326.756 85.9213 326.756 84.788V81.592C326.756 80.4133 326.507 79.4387 326.008 78.668C325.555 77.8973 324.897 77.308 324.036 76.9C323.22 76.4467 322.223 76.22 321.044 76.22H309.416V90.16ZM373.97 116H369.21C367.895 116 366.739 115.705 365.742 115.116C364.744 114.481 363.951 113.597 363.362 112.464C362.818 111.285 362.546 109.903 362.546 108.316V107.5L364.722 109.948H362.274C361.684 112.169 360.46 113.869 358.602 115.048C356.788 116.227 354.544 116.816 351.87 116.816C348.243 116.816 345.455 115.864 343.506 113.96C341.556 112.011 340.582 109.472 340.582 106.344C340.582 103.896 341.171 101.879 342.35 100.292C343.574 98.7053 345.319 97.504 347.586 96.688C349.852 95.872 352.595 95.464 355.814 95.464H361.866V92.812C361.866 90.8627 361.322 89.344 360.234 88.256C359.191 87.1227 357.491 86.556 355.134 86.556C353.139 86.556 351.507 87.0093 350.238 87.916C348.968 88.7773 347.926 89.8427 347.11 91.112L342.01 86.488C343.279 84.448 345.002 82.816 347.178 81.592C349.354 80.3227 352.21 79.688 355.746 79.688C360.506 79.688 364.132 80.7987 366.626 83.02C369.164 85.196 370.434 88.3013 370.434 92.336V109.2H373.97V116ZM361.866 100.632H356.222C353.91 100.632 352.164 101.017 350.986 101.788C349.852 102.559 349.286 103.669 349.286 105.12V106.276C349.286 107.681 349.762 108.747 350.714 109.472C351.711 110.197 353.048 110.56 354.726 110.56C356.086 110.56 357.287 110.379 358.33 110.016C359.418 109.608 360.279 109.019 360.914 108.248C361.548 107.477 361.866 106.525 361.866 105.392V100.632ZM379.656 129.6V80.504H388.224V86.42H388.564C389.198 84.3347 390.4 82.7027 392.168 81.524C393.936 80.3 395.998 79.688 398.356 79.688C401.348 79.688 403.864 80.4133 405.904 81.864C407.989 83.3147 409.576 85.4227 410.664 88.188C411.752 90.9533 412.296 94.308 412.296 98.252C412.296 102.151 411.752 105.505 410.664 108.316C409.576 111.081 407.989 113.189 405.904 114.64C403.864 116.091 401.348 116.816 398.356 116.816C395.998 116.816 393.936 116.204 392.168 114.98C390.445 113.756 389.244 112.124 388.564 110.084H388.224V129.6H379.656ZM395.636 109.676C397.902 109.676 399.738 108.905 401.144 107.364C402.594 105.823 403.32 103.805 403.32 101.312V95.192C403.32 92.6533 402.594 90.6133 401.144 89.072C399.738 87.5307 397.902 86.76 395.636 86.76C394.23 86.76 392.961 87.0093 391.828 87.508C390.74 87.9613 389.856 88.6187 389.176 89.48C388.541 90.3413 388.224 91.3613 388.224 92.54V103.828C388.224 105.052 388.541 106.117 389.176 107.024C389.856 107.885 390.74 108.543 391.828 108.996C392.961 109.449 394.23 109.676 395.636 109.676ZM433.079 116.816C429.724 116.816 426.823 116.068 424.375 114.572C421.927 113.031 420.023 110.877 418.663 108.112C417.348 105.301 416.691 102.015 416.691 98.252C416.691 94.444 417.348 91.1573 418.663 88.392C420.023 85.6267 421.927 83.496 424.375 82C426.823 80.4587 429.724 79.688 433.079 79.688C436.479 79.688 439.403 80.4587 441.851 82C444.299 83.496 446.18 85.6267 447.495 88.392C448.855 91.1573 449.535 94.444 449.535 98.252C449.535 102.015 448.855 105.301 447.495 108.112C446.18 110.877 444.299 113.031 441.851 114.572C439.403 116.068 436.479 116.816 433.079 116.816ZM433.079 109.88C435.391 109.88 437.204 109.177 438.519 107.772C439.879 106.321 440.559 104.236 440.559 101.516V94.988C440.559 92.2227 439.879 90.1373 438.519 88.732C437.204 87.3267 435.391 86.624 433.079 86.624C430.857 86.624 429.067 87.3267 427.707 88.732C426.347 90.1373 425.667 92.2227 425.667 94.988V101.516C425.667 104.236 426.347 106.321 427.707 107.772C429.067 109.177 430.857 109.88 433.079 109.88ZM464.527 116H455.959V80.504H464.527V87.848H464.867C465.185 86.5787 465.729 85.4 466.499 84.312C467.27 83.1787 468.29 82.272 469.559 81.592C470.874 80.8667 472.461 80.504 474.319 80.504H476.223V88.596H473.435C471.486 88.596 469.854 88.8 468.539 89.208C467.225 89.616 466.227 90.228 465.547 91.044C464.867 91.8147 464.527 92.8573 464.527 94.172V116ZM496.482 116V68.536H518.378C522.277 68.536 525.337 69.6467 527.558 71.868C529.825 74.0893 530.958 77.036 530.958 80.708C530.958 83.1107 530.55 85.0373 529.734 86.488C528.918 87.9387 527.853 89.004 526.538 89.684C525.269 90.364 523.932 90.772 522.526 90.908V91.316C523.569 91.316 524.657 91.52 525.79 91.928C526.969 92.336 528.08 92.9707 529.122 93.832C530.21 94.6933 531.072 95.8267 531.706 97.232C532.386 98.6373 532.726 100.36 532.726 102.4C532.726 104.939 532.182 107.228 531.094 109.268C530.052 111.308 528.601 112.94 526.742 114.164C524.929 115.388 522.844 116 520.486 116H496.482ZM505.322 95.6V108.452H517.97C519.104 108.452 520.078 108.248 520.894 107.84C521.71 107.432 522.345 106.843 522.798 106.072C523.252 105.301 523.478 104.349 523.478 103.216V100.904C523.478 99.7707 523.252 98.8187 522.798 98.048C522.345 97.2773 521.71 96.688 520.894 96.28C520.078 95.8267 519.104 95.6 517.97 95.6H505.322ZM505.322 76.084V88.324H516.542C517.63 88.324 518.56 88.1427 519.33 87.78C520.146 87.372 520.758 86.7827 521.166 86.012C521.574 85.2413 521.778 84.3347 521.778 83.292V81.116C521.778 80.0733 521.574 79.1667 521.166 78.396C520.758 77.6253 520.146 77.0587 519.33 76.696C518.56 76.288 517.63 76.084 516.542 76.084H505.322ZM543.886 75.268C542.163 75.268 540.894 74.86 540.078 74.044C539.262 73.1827 538.854 72.14 538.854 70.916V69.624C538.854 68.3547 539.262 67.312 540.078 66.496C540.894 65.68 542.163 65.272 543.886 65.272C545.654 65.272 546.923 65.68 547.694 66.496C548.51 67.312 548.918 68.3547 548.918 69.624V70.916C548.918 72.14 548.51 73.1827 547.694 74.044C546.923 74.86 545.654 75.268 543.886 75.268ZM539.602 116V80.504H548.17V116H539.602ZM565.47 116H556.902V80.504H565.47V87.848H565.81C566.127 86.5787 566.671 85.4 567.442 84.312C568.213 83.1787 569.233 82.272 570.502 81.592C571.817 80.8667 573.403 80.504 575.262 80.504H577.166V88.596H574.378C572.429 88.596 570.797 88.8 569.482 89.208C568.167 89.616 567.17 90.228 566.49 91.044C565.81 91.8147 565.47 92.8573 565.47 94.172V116ZM603.455 116V110.084H603.115C602.48 111.852 601.392 113.416 599.851 114.776C598.355 116.136 596.134 116.816 593.187 116.816C589.56 116.816 586.75 115.615 584.755 113.212C582.76 110.809 581.763 107.387 581.763 102.944V80.504H590.399V102.06C590.399 104.553 590.875 106.457 591.827 107.772C592.824 109.041 594.343 109.676 596.383 109.676C597.562 109.676 598.695 109.472 599.783 109.064C600.871 108.656 601.755 108.044 602.435 107.228C603.115 106.367 603.455 105.301 603.455 104.032V80.504H612.023V116H603.455Z" fill="white"/>
<path d="M315.856 179H299.092V148.288H302.788V175.744H315.856V179ZM328.889 179.528C326.836 179.528 325.047 179.044 323.521 178.076C321.996 177.079 320.808 175.7 319.957 173.94C319.107 172.151 318.681 170.053 318.681 167.648C318.681 165.243 319.107 163.16 319.957 161.4C320.808 159.611 321.996 158.232 323.521 157.264C325.047 156.267 326.836 155.768 328.889 155.768C330.913 155.768 332.659 156.252 334.125 157.22C335.592 158.159 336.721 159.464 337.513 161.136C338.305 162.808 338.701 164.715 338.701 166.856V168.528H322.377V169.584C322.377 171.549 322.964 173.192 324.137 174.512C325.34 175.803 326.997 176.448 329.109 176.448C330.547 176.448 331.793 176.111 332.849 175.436C333.935 174.761 334.771 173.793 335.357 172.532L337.865 174.336C337.132 175.861 335.988 177.108 334.433 178.076C332.879 179.044 331.031 179.528 328.889 179.528ZM328.889 158.716C327.628 158.716 326.499 159.009 325.501 159.596C324.533 160.183 323.771 161.004 323.213 162.06C322.656 163.087 322.377 164.26 322.377 165.58V165.888H334.917V165.404C334.917 164.055 334.668 162.881 334.169 161.884C333.671 160.887 332.967 160.109 332.057 159.552C331.148 158.995 330.092 158.716 328.889 158.716ZM362.982 179H361.002C360.063 179 359.3 178.809 358.714 178.428C358.127 178.017 357.702 177.46 357.438 176.756C357.174 176.052 357.042 175.245 357.042 174.336V174.028L358.406 175.304H356.866C356.396 176.683 355.575 177.739 354.402 178.472C353.258 179.176 351.894 179.528 350.31 179.528C347.904 179.528 346.027 178.912 344.678 177.68C343.358 176.448 342.698 174.776 342.698 172.664C342.698 171.227 343.05 170.024 343.754 169.056C344.458 168.059 345.514 167.311 346.922 166.812C348.359 166.284 350.178 166.02 352.378 166.02H356.866V163.776C356.866 162.163 356.426 160.931 355.546 160.08C354.666 159.229 353.316 158.804 351.498 158.804C350.148 158.804 349.004 159.112 348.066 159.728C347.127 160.344 346.35 161.165 345.734 162.192L343.622 160.212C344.238 159.009 345.22 157.968 346.57 157.088C347.919 156.208 349.62 155.768 351.674 155.768C354.402 155.768 356.528 156.443 358.054 157.792C359.608 159.141 360.386 161.019 360.386 163.424V175.92H362.982V179ZM356.866 168.66H352.202C350.207 168.66 348.74 168.953 347.802 169.54C346.863 170.127 346.394 170.977 346.394 172.092V173.016C346.394 174.131 346.804 174.996 347.626 175.612C348.447 176.228 349.532 176.536 350.882 176.536C352.055 176.536 353.082 176.36 353.962 176.008C354.871 175.627 355.575 175.128 356.074 174.512C356.602 173.867 356.866 173.163 356.866 172.4V168.66ZM371.526 179H368.006V156.296H371.526V160.476H371.746C372.01 159.743 372.42 159.068 372.978 158.452C373.535 157.807 374.254 157.293 375.134 156.912C376.014 156.501 377.07 156.296 378.302 156.296H379.666V159.816H377.598C376.336 159.816 375.251 159.992 374.342 160.344C373.432 160.667 372.728 161.107 372.23 161.664C371.76 162.221 371.526 162.867 371.526 163.6V179ZM387.682 179H384.162V156.296H387.682V159.992H387.858C388.415 158.701 389.193 157.675 390.19 156.912C391.217 156.149 392.581 155.768 394.282 155.768C396.629 155.768 398.477 156.531 399.826 158.056C401.205 159.552 401.894 161.679 401.894 164.436V179H398.374V165.052C398.374 163.028 397.934 161.503 397.054 160.476C396.203 159.449 394.927 158.936 393.226 158.936C392.287 158.936 391.393 159.097 390.542 159.42C389.691 159.713 389.002 160.183 388.474 160.828C387.946 161.473 387.682 162.28 387.682 163.248V179ZM410.93 150.972C410.196 150.972 409.654 150.796 409.302 150.444C408.95 150.063 408.774 149.579 408.774 148.992V148.42C408.774 147.833 408.95 147.364 409.302 147.012C409.654 146.631 410.196 146.44 410.93 146.44C411.692 146.44 412.235 146.631 412.558 147.012C412.91 147.364 413.086 147.833 413.086 148.42V148.992C413.086 149.579 412.91 150.063 412.558 150.444C412.235 150.796 411.692 150.972 410.93 150.972ZM409.17 179V156.296H412.69V179H409.17ZM423.69 179H420.17V156.296H423.69V159.992H423.866C424.423 158.701 425.2 157.675 426.198 156.912C427.224 156.149 428.588 155.768 430.29 155.768C432.636 155.768 434.484 156.531 435.834 158.056C437.212 159.552 437.902 161.679 437.902 164.436V179H434.382V165.052C434.382 163.028 433.942 161.503 433.062 160.476C432.211 159.449 430.935 158.936 429.234 158.936C428.295 158.936 427.4 159.097 426.55 159.42C425.699 159.713 425.01 160.183 424.482 160.828C423.954 161.473 423.69 162.28 423.69 163.248V179ZM464.318 181.508C464.318 183.063 463.907 184.339 463.086 185.336C462.264 186.363 461.032 187.111 459.39 187.58C457.776 188.079 455.752 188.328 453.318 188.328C450.971 188.328 449.05 188.108 447.554 187.668C446.087 187.228 445.016 186.583 444.341 185.732C443.667 184.911 443.33 183.913 443.33 182.74C443.33 181.508 443.652 180.54 444.298 179.836C444.943 179.132 445.823 178.633 446.938 178.34V177.856C446.292 177.533 445.794 177.123 445.442 176.624C445.09 176.096 444.914 175.451 444.914 174.688C444.914 173.544 445.28 172.679 446.014 172.092C446.747 171.476 447.686 171.021 448.83 170.728V170.552C447.48 169.907 446.424 168.983 445.662 167.78C444.928 166.577 444.562 165.184 444.562 163.6C444.562 162.045 444.914 160.681 445.618 159.508C446.322 158.335 447.319 157.425 448.61 156.78C449.9 156.105 451.396 155.768 453.098 155.768C453.919 155.768 454.682 155.841 455.386 155.988C456.119 156.135 456.794 156.355 457.41 156.648V156.252C457.41 155.372 457.615 154.653 458.026 154.096C458.436 153.509 459.111 153.216 460.05 153.216H463.438V156.296H459.126V157.748C459.947 158.452 460.578 159.303 461.018 160.3C461.487 161.297 461.722 162.397 461.722 163.6C461.722 165.125 461.37 166.489 460.666 167.692C459.962 168.865 458.964 169.789 457.674 170.464C456.383 171.109 454.872 171.432 453.142 171.432C452.76 171.432 452.379 171.417 451.998 171.388C451.616 171.329 451.264 171.271 450.942 171.212C450.208 171.417 449.519 171.725 448.874 172.136C448.258 172.517 447.95 173.06 447.95 173.764C447.95 174.439 448.272 174.893 448.918 175.128C449.563 175.363 450.399 175.48 451.426 175.48H456.266C459.082 175.48 461.12 176.023 462.382 177.108C463.672 178.164 464.318 179.631 464.318 181.508ZM461.018 181.772C461.018 180.863 460.666 180.129 459.962 179.572C459.287 179.044 458.07 178.78 456.31 178.78H448.742C448.008 179.103 447.466 179.513 447.114 180.012C446.791 180.54 446.63 181.156 446.63 181.86C446.63 182.857 446.996 183.708 447.73 184.412C448.492 185.116 449.768 185.468 451.558 185.468H454.814C456.779 185.468 458.304 185.16 459.39 184.544C460.475 183.928 461.018 183.004 461.018 181.772ZM453.142 168.616C454.638 168.616 455.826 168.264 456.706 167.56C457.586 166.827 458.026 165.712 458.026 164.216V162.984C458.026 161.488 457.586 160.388 456.706 159.684C455.826 158.951 454.638 158.584 453.142 158.584C451.646 158.584 450.458 158.951 449.578 159.684C448.698 160.388 448.258 161.488 448.258 162.984V164.216C448.258 165.712 448.698 166.827 449.578 167.56C450.458 168.264 451.646 168.616 453.142 168.616ZM490.658 179.528C488.018 179.528 485.715 178.927 483.75 177.724C481.814 176.492 480.303 174.703 479.218 172.356C478.162 169.98 477.634 167.076 477.634 163.644C477.634 160.212 478.162 157.323 479.218 154.976C480.303 152.6 481.814 150.811 483.75 149.608C485.715 148.376 488.018 147.76 490.658 147.76C493.298 147.76 495.586 148.376 497.522 149.608C499.487 150.811 500.998 152.6 502.054 154.976C503.139 157.323 503.682 160.212 503.682 163.644C503.682 167.076 503.139 169.98 502.054 172.356C500.998 174.703 499.487 176.492 497.522 177.724C495.586 178.927 493.298 179.528 490.658 179.528ZM490.658 176.228C492.447 176.228 494.017 175.817 495.366 174.996C496.715 174.145 497.771 172.972 498.534 171.476C499.326 169.98 499.722 168.22 499.722 166.196V161.092C499.722 159.068 499.326 157.308 498.534 155.812C497.771 154.287 496.715 153.113 495.366 152.292C494.017 151.471 492.447 151.06 490.658 151.06C488.898 151.06 487.329 151.471 485.95 152.292C484.601 153.113 483.53 154.287 482.738 155.812C481.975 157.308 481.594 159.068 481.594 161.092V166.196C481.594 168.22 481.975 169.98 482.738 171.476C483.53 172.972 484.601 174.145 485.95 174.996C487.329 175.817 488.898 176.228 490.658 176.228ZM518.95 179.528C516.486 179.528 514.36 179.059 512.57 178.12C510.81 177.152 509.314 175.832 508.082 174.16L510.81 171.872C511.896 173.309 513.098 174.409 514.418 175.172C515.738 175.905 517.293 176.272 519.082 176.272C521.282 176.272 522.954 175.744 524.098 174.688C525.272 173.632 525.858 172.224 525.858 170.464C525.858 169.496 525.668 168.675 525.286 168C524.905 167.325 524.289 166.768 523.438 166.328C522.617 165.859 521.532 165.477 520.182 165.184L517.674 164.612C515.826 164.172 514.257 163.6 512.966 162.896C511.676 162.192 510.693 161.283 510.018 160.168C509.344 159.053 509.006 157.719 509.006 156.164C509.006 154.345 509.432 152.82 510.282 151.588C511.133 150.327 512.321 149.373 513.846 148.728C515.401 148.083 517.176 147.76 519.17 147.76C521.488 147.76 523.468 148.185 525.11 149.036C526.782 149.887 528.19 151.133 529.334 152.776L526.562 154.8C525.741 153.627 524.714 152.703 523.482 152.028C522.28 151.353 520.784 151.016 518.994 151.016C517.029 151.016 515.474 151.441 514.33 152.292C513.216 153.143 512.658 154.389 512.658 156.032C512.658 157 512.864 157.807 513.274 158.452C513.714 159.097 514.36 159.64 515.21 160.08C516.061 160.491 517.132 160.843 518.422 161.136L520.93 161.708C522.925 162.148 524.553 162.749 525.814 163.512C527.076 164.275 528 165.213 528.586 166.328C529.202 167.443 529.51 168.763 529.51 170.288C529.51 172.165 529.085 173.793 528.234 175.172C527.384 176.551 526.166 177.621 524.582 178.384C523.028 179.147 521.15 179.528 518.95 179.528Z" fill="white"/>
</svg>
